<svg width="267" height="70" viewBox="0 0 267 70" fill="none" xmlns="http://www.w3.org/2000/svg">
<path d="M70 35C70 44.3488 66.3592 53.1385 59.7488 59.7488C53.1385 66.3592 44.3488 70 35 70C25.6512 70 16.8615 66.3592 10.2512 59.7488C3.64082 53.1385 0 44.3488 0 35C0 25.6512 3.64082 16.8615 10.2512 10.2512C16.8615 3.64082 25.6512 0 35 0C44.3488 0 53.1385 3.64082 59.7488 10.2512C66.3592 16.8615 70 25.6512 70 35V35Z" fill="#FEE158"/>
<path d="M70 35C70 44.3488 66.3592 53.1385 59.7488 59.7488C53.1385 66.3592 44.3488 70 35 70V0C44.3488 0 53.1385 3.64082 59.7488 10.2512C66.3592 16.8615 70 25.6512 70 35Z" fill="#FFB528"/>
<path d="M35 62.6172C50.2526 62.6172 62.6172 50.2526 62.6172 35C62.6172 19.7474 50.2526 7.38281 35 7.38281C19.7474 7.38281 7.38281 19.7474 7.38281 35C7.38281 50.2526 19.7474 62.6172 35 62.6172Z" fill="#FFB528"/>
<path d="M62.6172 35C62.6172 50.2277 50.2277 62.6172 35 62.6172V7.38281C50.2277 7.38281 62.6172 19.7723 62.6172 35Z" fill="#FE8C01"/>
<path d="M45.4928 34.5734C45.0334 34.1141 44.533 33.7121 44.0012 33.3676C45.2576 31.958 46.0246 30.1014 46.0246 28.067C46.0246 25.9451 45.1933 23.9436 43.6853 22.4355C42.176 20.9262 40.1758 20.0949 38.0525 20.0949H37.0504V16.1328H32.9488V20.0949H23.9199V24.1965H27.2695V45.8035H23.9199V49.9051H32.9488V53.8672H37.0504V49.9051H39.1463C44.0996 49.9051 48.1301 45.8746 48.1301 40.9213C48.1301 38.5287 47.1935 36.2742 45.4928 34.5734V34.5734ZM31.3711 24.1965H38.0525C39.0807 24.1965 40.05 24.6012 40.7842 25.3354C41.5183 26.0695 41.923 27.0402 41.923 28.067C41.923 30.1807 40.2209 31.9033 38.1154 31.9361H31.3711V24.1965ZM39.1463 45.8035H31.3711V36.0404L34.9996 36.0391L39.1463 36.0377C40.4424 36.0377 41.6674 36.5477 42.593 37.4746C43.5185 38.4002 44.0285 39.6238 44.0285 40.9213C44.0285 43.6133 41.8383 45.8035 39.1463 45.8035Z" fill="#FEE158"/>
<path d="M48.1305 40.9213C48.1305 45.8746 44.1 49.9051 39.1467 49.9051H37.0508V53.8672H35V45.8035H39.1467C41.8387 45.8035 44.0289 43.6133 44.0289 40.9213C44.0289 39.6238 43.5189 38.4002 42.5934 37.4746C41.6678 36.5477 40.4428 36.0377 39.1467 36.0377L35 36.0391V31.9361H38.1158C40.2213 31.9033 41.9234 30.1807 41.9234 28.067C41.9234 27.0402 41.5187 26.0695 40.7846 25.3354C40.0504 24.6012 39.0811 24.1965 38.0529 24.1965H35V16.1328H37.0508V20.0949H38.0529C40.1762 20.0949 42.1764 20.9262 43.6857 22.4355C45.1937 23.9436 46.025 25.9451 46.025 28.067C46.025 30.1014 45.258 31.958 44.0016 33.3676C44.5334 33.7121 45.0338 34.1141 45.4932 34.5734C47.1939 36.2742 48.1305 38.5287 48.1305 40.9213V40.9213Z" fill="#FFB528"/>
<path d="M85.045 25.311L82.79 47H78.69L81.683 18.3H85.414L97.96 39.989H98.042L100.338 18.3H104.438L101.445 47H97.714L85.127 25.311H85.045ZM124.993 43.433L124.624 47H113.185L108.716 44.253L110.315 29.042L115.358 26.295H122.041L126.51 29.042L125.526 38.144H113.308L112.775 43.433H124.993ZM114.169 29.862L113.677 34.577H121.918L122.41 29.862H114.169ZM147.859 47L145.071 31.338H144.989L138.962 47H134.247L131.254 26.5H134.944L137.158 42.531H137.24L143.431 26.5H147.654L150.483 42.531H150.565L156.141 26.5H159.831L152.574 47H147.859ZM178.602 37.57L177.905 44.253L172.862 47H162.202L162.571 43.433H174.01L174.543 38.39H167.86L163.391 35.643L164.047 29.247L169.09 26.5H179.34L178.971 30.067H167.942L167.45 34.823H174.133L178.602 37.57Z" fill="#333333"/>
<path d="M201.526 39.825H205.626L205.134 44.458L200.091 47.205H189.308L184.839 44.458L187.34 20.842L192.383 18.095H203.166L207.635 20.842L207.143 25.475H203.043L203.412 21.785H191.317L189.021 43.515H201.116L201.526 39.825ZM229.121 44.458L224.078 47.205H216.165L211.696 44.458L213.336 29.042L218.379 26.295H226.292L230.761 29.042L229.121 44.458ZM217.19 29.862L215.755 43.638H225.226L226.661 29.862H217.19ZM241.542 26.5L239.41 47H235.433L237.565 26.5H241.542ZM237.893 21.457L238.344 17.07H242.731L242.28 21.457H237.893ZM265.275 29.042L263.389 47H259.412L261.175 29.862H251.704L249.941 47H245.964L248.137 26.295H251.13L251.909 27.976L255.025 26.295H260.806L265.275 29.042Z" fill="#FFB528"/>
</svg>
